<svg id="Capa_1" data-name="Capa 1" xmlns="http://www.w3.org/2000/svg" viewBox="0 0 35 35"><defs><style>.cls-1{fill:#f4f6f7;}</style></defs><path class="cls-1" d="M23.77,7.19H11.23a4,4,0,0,0-4,4V23.82a4,4,0,0,0,4,4H23.77a4,4,0,0,0,4-4V11.18A4,4,0,0,0,23.77,7.19ZM17.5,23.08a5.58,5.58,0,1,1,5.58-5.58A5.58,5.58,0,0,1,17.5,23.08ZM24,13a2.06,2.06,0,1,1,2-2A2.05,2.05,0,0,1,24,13Z"/><circle class="cls-1" cx="17.5" cy="17.5" r="4.25"/><path class="cls-1" d="M30,0H5A5,5,0,0,0,0,5V30a5,5,0,0,0,5,5H30a5,5,0,0,0,5-5V5A5,5,0,0,0,30,0Zm-.75,25.24a4,4,0,0,1-4,4H9.76a4,4,0,0,1-4-4V9.76a4,4,0,0,1,4-4H25.24a4,4,0,0,1,4,4Z"/></svg>