<svg id="Capa_1" data-name="Capa 1" xmlns="http://www.w3.org/2000/svg" viewBox="0 0 35 35"><defs><style>.cls-1{fill:#f4f6f7;}</style></defs><path class="cls-1" d="M12.28,9c-3.6,2.32-5.5,7.21-3.85,11.07.91,2.11,1.27,4,.34,6.07l-.14.13.28.09A8,8,0,0,0,10.09,26a4.62,4.62,0,0,1,3.93.12A9.74,9.74,0,0,0,24.34,10,10,10,0,0,0,12.28,9Zm10.9,12a2.82,2.82,0,0,1-3.09,1.66,10.42,10.42,0,0,1-6.29-3.75,8.15,8.15,0,0,1-2-3.88A2.57,2.57,0,0,1,13.68,12l.25,0a.93.93,0,0,1,.44.11c.76.46,1.26,3,.68,3.69s-.32.93,0,1.4a8.93,8.93,0,0,0,3,2.63c.63.34,1.17.39,1.54-.32.51-1,1.2-1,2-.42S23.71,19.42,23.18,21Z"/><path class="cls-1" d="M30,0H5A5,5,0,0,0,0,5V30a5,5,0,0,0,5,5H30a5,5,0,0,0,5-5V5A5,5,0,0,0,30,0Zm-6.8,27.46a11.63,11.63,0,0,1-10.29.29A2.32,2.32,0,0,0,11,27.67c-1.68.59-3.43,1.12-5.37,1.73.63-1.86,1.15-3.52,1.75-5.16a2.07,2.07,0,0,0-.08-1.83A11.59,11.59,0,0,1,12.45,6.84,11.75,11.75,0,0,1,28,11.75,11.63,11.63,0,0,1,23.18,27.46Z"/></svg>