<svg id="Capa_1" data-name="Capa 1" xmlns="http://www.w3.org/2000/svg" viewBox="0 0 588.07 263.1"><defs><style>.cls-1{fill:#525f69;stroke:#1d1d1b;stroke-width:0.25px;opacity:0.87;}.cls-1,.cls-3{stroke-miterlimit:10;}.cls-2,.cls-3{fill:#fff;}.cls-3{stroke:#fff;}</style></defs><rect class="cls-1" x="0.13" y="0.13" width="587.82" height="262.85"/><path class="cls-2" d="M100.1,203.1l8.7,22.37a3.2,3.2,0,0,0,3.52,2.55v.88h-8.94V228c2.32,0,3.38-.28,3.38-1.36a3.45,3.45,0,0,0-.21-1l-2.29-5.88H93.66l-1.9,5.07a5.6,5.6,0,0,0-.36,1.61c0,1.26,1,1.61,3.35,1.61v.88H87.07V228c1.94,0,2.64-.45,3.74-3.64l7.36-20.47Zm-1.27,2.38L94,218.71h9.86Z" transform="translate(1.32 2.19)"/><path class="cls-2" d="M116.58,223.86c1.58,2.13,3.84,4.65,7.75,4.65,2.32,0,4.08-1.33,4.08-3.6,0-1.61-1.27-2.49-5-3.64-5.5-1.68-6.77-3.19-6.77-5.46s2.12-3.85,5.5-3.85a22.91,22.91,0,0,1,3.77.63,1.21,1.21,0,0,0,.35-.07l1.3-.6,2,5-.6.28c-.77-1.4-3.42-4.38-6.83-4.38-2.19,0-3.7,1-3.7,3,0,1.71,1.76,2.45,5,3.43,4.82,1.47,6.72,2.87,6.72,5.67,0,3.11-2.92,4.55-5.84,4.55-2,0-3.17-.7-4.16-.7a1.39,1.39,0,0,0-.53.07l-1.44.59-2-5.35Z" transform="translate(1.32 2.19)"/><path class="cls-2" d="M137.14,220.11c0,6.09,3.07,8.12,6.45,8.12a8,8,0,0,0,6.62-3.32l.49.42a8.46,8.46,0,0,1-7.61,4.13c-4.89,0-8.2-3.5-8.2-8.79,0-4.86,3.17-8.71,8-8.71,4.65,0,7.53,3,7.53,8.15Zm11-1c-.21-4.37-2.11-6.33-5.28-6.33-3,0-5.53,2.69-5.74,6.33Z" transform="translate(1.32 2.19)"/><path class="cls-2" d="M156.15,223.86c1.59,2.13,3.84,4.65,7.75,4.65,2.33,0,4.09-1.33,4.09-3.6,0-1.61-1.27-2.49-5-3.64-5.49-1.68-6.76-3.19-6.76-5.46s2.11-3.85,5.49-3.85a22.5,22.5,0,0,1,3.77.63,1.14,1.14,0,0,0,.35-.07l1.31-.6,2,5-.59.28c-.78-1.4-3.42-4.38-6.84-4.38-2.18,0-3.69,1-3.69,3,0,1.71,1.76,2.45,5,3.43,4.83,1.47,6.73,2.87,6.73,5.67,0,3.11-2.93,4.55-5.85,4.55-2,0-3.17-.7-4.15-.7a1.36,1.36,0,0,0-.53.07l-1.45.59-2-5.35Z" transform="translate(1.32 2.19)"/><path class="cls-2" d="M190.42,220.74c0,4.52-2.54,8.72-8,8.72s-8-4.2-8-8.72,2.5-8.78,8-8.78S190.42,216.26,190.42,220.74Zm-13.77,0c0,4.06,1.76,7.88,5.74,7.88s5.7-3.82,5.7-7.88-1.76-7.94-5.7-7.94S176.65,216.68,176.65,220.74Z" transform="translate(1.32 2.19)"/><path class="cls-2" d="M193.93,228.9V228c1.41,0,2.33-.45,2.33-1.82V215.46c0-1.23-.35-1.61-2.15-1.61l-.18-.53,4.44-1.71V216c2.18-1.86,4.9-4.34,7.22-4.34a1.81,1.81,0,0,1,1.83,1.64,1.78,1.78,0,0,1-1.83,1.61c-1.16,0-1.41-.94-2.22-.94-1,0-3.2,1.82-5,3.29v9c0,1.37.53,1.82,2.36,1.82v.88Z" transform="translate(1.32 2.19)"/><path class="cls-2" d="M226.82,227.74a3.32,3.32,0,0,1-2.81,1.72c-1.59,0-1.91-1.16-1.91-2.38a8.17,8.17,0,0,1-6,2.38c-3.41,0-5-1.79-5-4.06,0-3.12,3.66-5.5,11-6.62V216.3c0-2.1-1-3.5-3.13-3.5-2.68,0-3.73.73-4.37,2.52-.28.77-.67,1.47-1.55,1.47a1.33,1.33,0,0,1-1.41-1.51c0-1.75,2.89-3.32,7.51-3.32,3.06,0,5.07,1.61,5.07,4.65v9.7c0,1.05.1,1.89.67,1.89a2.19,2.19,0,0,0,1.62-.81Zm-4.72-8c-4.72.52-8.66,2.45-8.66,5.6,0,1.57,1.2,2.73,3.31,2.73a6.71,6.71,0,0,0,5.35-2Z" transform="translate(1.32 2.19)"/><path class="cls-2" d="M229.35,228.9v-.84c1.77,0,2.5-.63,2.5-2V215.84c0-1.57-.73-1.89-2.35-1.89l-.15-.59L234,212v3.15c1.37-1.33,3.48-3.15,6.3-3.15a4.13,4.13,0,0,1,4,3c1.62-1.5,3.76-3,6.3-3a4,4,0,0,1,4.09,3.85V226.1c0,1.33.88,2,2.5,2v.84h-7v-.84c1.62,0,2.36-.63,2.36-2v-9.73a2.92,2.92,0,0,0-3.17-2.91c-1.9,0-3.59,1.16-5.1,2.59v10c0,1.33.77,2,2.32,2v.84h-6.8v-.84c1.69,0,2.36-.63,2.36-2v-9.77a2.84,2.84,0,0,0-2.95-2.8c-2.26,0-3.67,1.05-5.25,2.7v9.87c0,1.33.67,2,2.43,2v.84Z" transform="translate(1.32 2.19)"/><path class="cls-2" d="M260.52,228.9V228c1.62,0,2.32-.31,2.32-1.71V215.63c0-.91-.39-1.57-2.36-1.57l-.1-.53L265,212v14.35c0,1.4.53,1.71,2.36,1.71v.88Zm5.28-24a1.75,1.75,0,0,1-1.87,1.75,1.75,1.75,0,1,1,0-3.5A1.74,1.74,0,0,1,265.8,204.89Z" transform="translate(1.32 2.19)"/><path class="cls-2" d="M273.47,220.11c0,6.09,3.07,8.12,6.45,8.12a8,8,0,0,0,6.62-3.32l.49.42a8.46,8.46,0,0,1-7.61,4.13c-4.89,0-8.2-3.5-8.2-8.79,0-4.86,3.17-8.71,8-8.71,4.65,0,7.54,3,7.54,8.15Zm11-1c-.22-4.37-2.12-6.33-5.29-6.33-3,0-5.53,2.69-5.74,6.33Z" transform="translate(1.32 2.19)"/><path class="cls-2" d="M291,228.9V228c1.76,0,2.33-.52,2.33-2.06V215.74c0-1.44-.39-1.86-2.22-1.86l-.11-.56,4.44-1.36V215c1.55-1.3,3.56-3,6.44-3s4.48,1.86,4.48,5v9c0,1.54.67,2.06,2.36,2.06v.88h-6.8V228c1.69,0,2.32-.52,2.32-2.06v-9.1c0-2-.67-3.33-3-3.33a8.46,8.46,0,0,0-5.77,2.59V226c0,1.54.7,2.06,2.36,2.06v.88Z" transform="translate(1.32 2.19)"/><path class="cls-2" d="M311.25,213.36v-.7c2.43-.21,3.88-2,4.05-6.09H316v5.77h4.76v1H316V226c0,1.3.85,2,2.29,2a4.52,4.52,0,0,0,3.14-1.82l.42.32c-1.16,2.13-2.64,3-4.51,3s-3.45-1.26-3.45-4V213.36Z" transform="translate(1.32 2.19)"/><path class="cls-2" d="M341.43,220.74c0,4.52-2.53,8.72-8,8.72s-8-4.2-8-8.72,2.5-8.78,8-8.78S341.43,216.26,341.43,220.74Zm-13.77,0c0,4.06,1.76,7.88,5.74,7.88s5.71-3.82,5.71-7.88-1.76-7.94-5.71-7.94S327.66,216.68,327.66,220.74Z" transform="translate(1.32 2.19)"/><path class="cls-2" d="M357.66,228.9V228c2.29,0,3-.38,3-2.13V213.53h-3v-.94h3v-2.38c0-3.26,2.22-6.93,5.63-6.93,1.31,0,2.33.45,2.33,1.78a1.51,1.51,0,0,1-1.55,1.26c-1.38,0-1.59-1-2.86-1-.91,0-1.44,1.12-1.44,3.95v3.33h4v.94h-4v12.36c0,1.75.7,2.13,3.66,2.13v.88Z" transform="translate(1.32 2.19)"/><path class="cls-2" d="M370.48,228.9V228c1.62,0,2.32-.31,2.32-1.71V215.63c0-.91-.39-1.57-2.36-1.57l-.11-.53,4.58-1.57v14.35c0,1.4.53,1.71,2.36,1.71v.88Zm5.28-24a1.75,1.75,0,0,1-1.87,1.75,1.75,1.75,0,1,1,0-3.5A1.74,1.74,0,0,1,375.76,204.89Z" transform="translate(1.32 2.19)"/><path class="cls-2" d="M380.4,228.9V228c1.76,0,2.33-.52,2.33-2.06V215.74c0-1.44-.39-1.86-2.22-1.86l-.11-.56,4.44-1.36V215c1.55-1.3,3.56-3,6.45-3s4.47,1.86,4.47,5v9c0,1.54.67,2.06,2.36,2.06v.88h-6.8V228c1.69,0,2.33-.52,2.33-2.06v-9.1c0-2-.67-3.33-3-3.33a8.49,8.49,0,0,0-5.78,2.59V226c0,1.54.71,2.06,2.36,2.06v.88Z" transform="translate(1.32 2.19)"/><path class="cls-2" d="M417.41,227.74a3.32,3.32,0,0,1-2.81,1.72c-1.59,0-1.91-1.16-1.91-2.38a8.17,8.17,0,0,1-6,2.38c-3.41,0-5-1.79-5-4.06,0-3.12,3.66-5.5,11-6.62V216.3c0-2.1-1-3.5-3.13-3.5-2.68,0-3.73.73-4.37,2.52-.28.77-.67,1.47-1.55,1.47a1.33,1.33,0,0,1-1.41-1.51c0-1.75,2.89-3.32,7.51-3.32,3.06,0,5.07,1.61,5.07,4.65v9.7c0,1.05.1,1.89.67,1.89a2.19,2.19,0,0,0,1.62-.81Zm-4.72-8c-4.72.52-8.66,2.45-8.66,5.6,0,1.57,1.2,2.73,3.31,2.73a6.71,6.71,0,0,0,5.35-2Z" transform="translate(1.32 2.19)"/><path class="cls-2" d="M435.54,225.08c-1.58,2.28-3.52,4.38-7,4.38a8,8,0,0,1-7.75-8.23c0-5.6,4.09-9.27,8.53-9.27,2.57,0,5.74,1.36,5.74,3.53a1.29,1.29,0,0,1-1.38,1.37c-1.26,0-1.34-1.05-1.79-1.93a3.38,3.38,0,0,0-3.49-2.06c-2.78,0-5.28,2.76-5.28,7.66,0,4.45,2.11,7.53,6.06,7.53,2.11,0,3.73-.7,5.88-3.29Z" transform="translate(1.32 2.19)"/><path class="cls-2" d="M439.34,228.9V228c1.62,0,2.33-.31,2.33-1.71V215.63c0-.91-.39-1.57-2.36-1.57l-.11-.53,4.58-1.57v14.35c0,1.4.53,1.71,2.36,1.71v.88Zm5.29-24a1.75,1.75,0,0,1-1.87,1.75,1.75,1.75,0,1,1,0-3.5A1.74,1.74,0,0,1,444.63,204.89Z" transform="translate(1.32 2.19)"/><path class="cls-2" d="M452.3,220.11c0,6.09,3.06,8.12,6.45,8.12a8,8,0,0,0,6.62-3.32l.49.42a8.46,8.46,0,0,1-7.61,4.13c-4.89,0-8.2-3.5-8.2-8.79,0-4.86,3.17-8.71,8-8.71,4.64,0,7.53,3,7.53,8.15Zm11-1c-.21-4.37-2.11-6.33-5.28-6.33-3,0-5.53,2.69-5.74,6.33Z" transform="translate(1.32 2.19)"/><path class="cls-2" d="M469.52,228.9V228c1.41,0,2.32-.45,2.32-1.82V215.46c0-1.23-.35-1.61-2.15-1.61l-.17-.53,4.44-1.71V216c2.18-1.86,4.89-4.34,7.21-4.34a1.81,1.81,0,0,1,1.84,1.64,1.78,1.78,0,0,1-1.84,1.61c-1.16,0-1.4-.94-2.21-.94-1,0-3.21,1.82-5,3.29v9c0,1.37.52,1.82,2.35,1.82v.88Z" transform="translate(1.32 2.19)"/><path class="cls-2" d="M502.65,220.74c0,4.52-2.53,8.72-8,8.72s-8-4.2-8-8.72,2.5-8.78,8-8.78S502.65,216.26,502.65,220.74Zm-13.77,0c0,4.06,1.76,7.88,5.74,7.88s5.71-3.82,5.71-7.88-1.76-7.94-5.71-7.94S488.88,216.68,488.88,220.74Z" transform="translate(1.32 2.19)"/><path class="cls-3" d="M84.62,90.38V88.63c6.25,0,7.33-1.12,7.33-5.18V46.27c0-2.94-1.08-4.48-7.33-4.48V40h40l5.56,11.48-1.16.56c-3.17-4.2-8.88-10.29-18.68-10.29h-8.1c-3.63,0-5.41,1.54-5.41,4.48V63h11.27c5.1,0,8.65-.7,8.65-8.47h1.85V74.21h-1.85c0-7.15-3.55-9.32-8.73-9.32H96.81V83.45c0,4.06,1.78,5.18,8,5.18v1.75Z" transform="translate(1.32 2.19)"/><path class="cls-3" d="M137.18,40H158v1.75c-6,0-8,1.05-8,4.55V84.5c0,2.8,2,4.13,8,4.13v1.75H137.18V88.63c6,0,8-1.33,8-4.13V46.34c0-3.5-2-4.55-8-4.55Z" transform="translate(1.32 2.19)"/><path class="cls-3" d="M165,90.38V88.63c5.48,0,7.33-1.33,7.33-4.83V46.62c0-3.5-1.85-4.83-7.33-4.83V40h10.42l35.19,42.15V45.64c0-2.73-2-3.85-8-3.85V40h17.67v1.75c-5.09,0-7.41,1.19-7.41,3.85V90.73h-1.23l-37-44.67V83.8c0,3.5,1.69,4.83,8,4.83v1.75Z" transform="translate(1.32 2.19)"/><path class="cls-3" d="M254.48,38.78l19.07,44.74c1.39,3.85,3.62,5.11,7.72,5.11v1.75H261.66V88.63c5.1,0,7.41-.56,7.41-2.73a6.3,6.3,0,0,0-.46-2.1l-5-11.76H240.36l-4.17,10.15a10.83,10.83,0,0,0-.77,3.22c0,2.52,2.24,3.22,7.33,3.22v1.75H225.93V88.63c4.24,0,5.79-.91,8.18-7.28l16.13-41Zm-2.77,4.76L241.13,70h21.61Z" transform="translate(1.32 2.19)"/><path class="cls-3" d="M287.05,90.38V88.63c5.48,0,7.33-1.33,7.33-4.83V46.62c0-3.5-1.85-4.83-7.33-4.83V40h10.42l35.19,42.15V45.64c0-2.73-2-3.85-8-3.85V40h17.67v1.75c-5.09,0-7.41,1.19-7.41,3.85V90.73h-1.23l-37-44.67V83.8c0,3.5,1.7,4.83,8,4.83v1.75Z" transform="translate(1.32 2.19)"/><path class="cls-3" d="M386.22,90.38H349.64l-.77-1L385.6,41.79H369.09c-8.65,0-13.28,4.83-16.9,10.85L351,52.15,355.58,40h35.5l.47,1.05L354.73,88.63H374.8c5.25,0,11-3.43,15.67-10.78l1.23.56Z" transform="translate(1.32 2.19)"/><path class="cls-3" d="M428,38.78,447,83.52c1.39,3.85,3.62,5.11,7.71,5.11v1.75h-19.6V88.63c5.1,0,7.41-.56,7.41-2.73a6.3,6.3,0,0,0-.46-2.1l-5-11.76H413.85l-4.17,10.15a10.83,10.83,0,0,0-.77,3.22c0,2.52,2.24,3.22,7.33,3.22v1.75H399.42V88.63c4.24,0,5.79-.91,8.18-7.28l16.13-41Zm-2.77,4.76L414.62,70h21.61Z" transform="translate(1.32 2.19)"/><path class="cls-3" d="M464,77.5c4.09,5.67,10.5,12.25,21.38,12.25,7.8,0,13.74-2.87,13.74-11,0-6.86-4.63-9.1-16.59-12.26-8.57-2.31-17.83-5.81-17.83-14.91,0-5.88,4.09-12.74,16.51-12.74,5.56,0,8.88,1.89,10.89,1.89a1.81,1.81,0,0,0,.92-.14l3.78-1.26,5,12.6-1.16.7c-4.55-6.93-10.8-12-19.75-12-6.26,0-12,2.59-12,9.8,0,7.42,7.56,10.22,15.74,12.25,10.42,2.59,18.91,5.82,18.91,14.78,0,9.87-8,14.07-17.91,14.07-5.48,0-10.34-2.24-12.11-2.24a11.67,11.67,0,0,0-5.64,2.1l-5.4-13.3Z" transform="translate(1.32 2.19)"/><path class="cls-3" d="M199.73,178.3c-2.55,2.1-4.25,3.85-8.18,3.85-4.71,0-8-3.64-10.27-8.05a21.34,21.34,0,0,1-8.33,1.4c-16.6,0-24.55-13.09-24.55-26.26s8-26.39,24.55-26.39c15.9,0,24.69,13.16,24.69,26.39,0,8.9-3.93,20-12.19,23.25,1.24,2.73,4,6,7.56,6a11.14,11.14,0,0,0,5.79-1.33Zm-46.15-29.06c0,6,1.92,14.71,5.78,18.35-.46-4.69,3.86-7.35,9.42-7.35a17.84,17.84,0,0,1,15.44,9.94c6.17-4.13,8.18-14.35,8.18-20.94,0-12.25-6.25-24.57-19.45-24.57S153.58,137,153.58,149.24ZM180.36,172c-3.79-7.7-9.5-9.59-12.66-9.59s-6.95,1.54-7,6.37a16.3,16.3,0,0,0,12.27,5A14.3,14.3,0,0,0,180.36,172Z" transform="translate(1.32 2.19)"/><path class="cls-3" d="M205.13,124h19.6v1.75c-5.48,0-7.41,1.26-7.41,4.2v28.78c0,8.54,7.1,14.42,17.14,14.42,7.33,0,16.28-3.08,16.28-14.7V130c0-2.94-1.62-4.2-7.41-4.2V124h17v1.75c-5.79,0-7.41,1.26-7.41,4.2v28.92c0,11.27-8.41,16.59-20.84,16.59-10.26,0-19.6-5.25-19.6-17.5V130c0-2.94-1.39-4.2-7.33-4.2Z" transform="translate(1.32 2.19)"/><path class="cls-3" d="M294.65,122.78l19.07,44.74c1.39,3.85,3.62,5.11,7.71,5.11v1.75h-19.6v-1.75c5.09,0,7.41-.56,7.41-2.73a6.3,6.3,0,0,0-.46-2.1l-5-11.76H280.53l-4.17,10.15a10.83,10.83,0,0,0-.77,3.22c0,2.52,2.24,3.22,7.33,3.22v1.75H266.1v-1.75c4.24,0,5.79-.91,8.18-7.28l16.13-41Zm-2.77,4.76L281.3,154h21.61Z" transform="translate(1.32 2.19)"/><path class="cls-3" d="M327.22,174.38v-1.75c5.48,0,7.33-1.33,7.33-4.83V130.62c0-3.5-1.85-4.83-7.33-4.83V124h10.42l35.19,42.15V129.64c0-2.73-2-3.85-8-3.85V124h17.67v1.75c-5.09,0-7.41,1.19-7.41,3.85v45.09h-1.23l-37-44.67V167.8c0,3.5,1.7,4.83,8,4.83v1.75Z" transform="translate(1.32 2.19)"/><path class="cls-3" d="M404.94,174.45V172.7c4.78,0,8.72-.35,8.72-3.85V129.92c0-2.94-1.55-4.06-6.49-4.06-9.95,0-14,5.39-17.36,10.36l-1.08-.56,4.47-11.55H439l4.56,12-1.32.49c-3.7-5.6-6.4-10.78-16-10.78-5.33,0-7.8,1.12-7.8,4.06v38.93c0,3.5,3.09,3.85,8.72,3.85v1.75Z" transform="translate(1.32 2.19)"/></svg>