<svg id="Capa_1" data-name="Capa 1" xmlns="http://www.w3.org/2000/svg" viewBox="0 0 588.07 263.1"><defs><style>.cls-1{fill:#525f69;stroke:#1d1d1b;stroke-miterlimit:10;stroke-width:0.25px;opacity:0.87;}.cls-2{fill:#fff;}</style></defs><rect class="cls-1" x="0.13" y="0.13" width="587.82" height="262.85"/><path class="cls-2" d="M72.67,140.38c-3,7.34-8.32,13.65-18.33,13.65C43,154,33.8,145.25,33.8,129.33c0-13.13,7.47-24.18,19.43-24.18,4.29,0,6.11.78,9.17,1.75L67,105.4l4.49,11.9-1,.52c-2.93-4.29-8.52-11-17.1-11-9.16,0-15.14,9.69-15.14,22.56,0,12.35,7.21,21.45,17.61,21.45,6.63,0,11.64-3.19,15.67-10.92Z" transform="translate(1.32 2.19)"/><path class="cls-2" d="M120.7,129.65c0,12.22-6.76,24.38-20.8,24.38-13.45,0-20.15-12.16-20.15-24.38s6.7-24.5,20.15-24.5C113.94,105.15,120.7,117.37,120.7,129.65Zm-36.59,0c0,11.38,5.26,22.75,15.79,22.75,11,0,16.32-11.37,16.32-22.75S111,106.83,99.9,106.83C89.37,106.83,84.11,118.28,84.11,129.65Z" transform="translate(1.32 2.19)"/><path class="cls-2" d="M141.37,153.05v-1.62c4,0,7.35-.33,7.35-3.58V111.71c0-2.73-1.3-3.77-5.46-3.77-8.39,0-11.77,5-14.63,9.62l-.91-.52,3.77-10.73H170l3.83,11.19-1.1.45c-3.12-5.2-5.4-10-13.46-10-4.48,0-6.56,1-6.56,3.77v36.14c0,3.25,2.6,3.58,7.34,3.58v1.62Z" transform="translate(1.32 2.19)"/><path class="cls-2" d="M179.72,106.25h17.55v1.63c-5.07,0-6.76,1-6.76,4.22v35.43c0,2.6,1.69,3.83,6.76,3.83V153H179.72v-1.63c5.07,0,6.76-1.23,6.76-3.83V112.1c0-3.25-1.69-4.22-6.76-4.22Z" transform="translate(1.32 2.19)"/><path class="cls-2" d="M235.23,153H204.42l-.65-.91,30.94-44.2H220.8c-7.28,0-11.18,4.48-14.24,10.07l-1-.45,3.9-11.25h29.91l.39,1-31,44.13h16.9c4.42,0,9.23-3.18,13.2-10l1,.52Z" transform="translate(1.32 2.19)"/><path class="cls-2" d="M270.39,105.08l16.06,41.54c1.17,3.57,3.05,4.74,6.5,4.74V153H276.44v-1.63c4.29,0,6.24-.52,6.24-2.53a6.42,6.42,0,0,0-.39-2L278.06,136H258.5L255,145.38a10.88,10.88,0,0,0-.65,3c0,2.34,1.88,3,6.17,3V153H246.34v-1.63c3.58,0,4.88-.84,6.89-6.76l13.59-38Zm-2.34,4.42-8.9,24.57h18.2Z" transform="translate(1.32 2.19)"/><path class="cls-2" d="M337.93,140.38c-3,7.34-8.32,13.65-18.33,13.65-11.31,0-20.54-8.78-20.54-24.7,0-13.13,7.47-24.18,19.43-24.18,4.29,0,6.11.78,9.17,1.75l4.61-1.5,4.49,11.9-1,.52c-2.93-4.29-8.52-11-17.1-11-9.16,0-15.14,9.69-15.14,22.56,0,12.35,7.21,21.45,17.61,21.45,6.63,0,11.64-3.19,15.67-10.92Z" transform="translate(1.32 2.19)"/><path class="cls-2" d="M344.82,106.25h17.55v1.63c-5.07,0-6.76,1-6.76,4.22v35.43c0,2.6,1.69,3.83,6.76,3.83V153H344.82v-1.63c5.07,0,6.76-1.23,6.76-3.83V112.1c0-3.25-1.69-4.22-6.76-4.22Z" transform="translate(1.32 2.19)"/><path class="cls-2" d="M410.34,129.65c0,12.22-6.76,24.38-20.8,24.38-13.46,0-20.15-12.16-20.15-24.38s6.69-24.5,20.15-24.5C403.58,105.15,410.34,117.37,410.34,129.65Zm-36.6,0c0,11.38,5.27,22.75,15.8,22.75,11,0,16.31-11.37,16.31-22.75s-5.26-22.82-16.31-22.82C379,106.83,373.74,118.28,373.74,129.65Z" transform="translate(1.32 2.19)"/><path class="cls-2" d="M417,153v-1.63c4.61,0,6.17-1.23,6.17-4.48V112.36c0-3.25-1.56-4.48-6.17-4.48v-1.63h8.77l29.64,39.13V111.45c0-2.53-1.69-3.57-6.76-3.57v-1.63h14.89v1.63c-4.29,0-6.24,1.1-6.24,3.57v41.86h-1l-31.14-41.47v35c0,3.25,1.43,4.48,6.76,4.48V153Z" transform="translate(1.32 2.19)"/><path class="cls-2" d="M468.38,153v-1.63c4.42,0,6.18-1.36,6.18-4.48V112c0-3-1.76-4.16-6.18-4.16v-1.63h34.13l4.55,11-1,.65c-3.25-4-5.85-10.07-15.92-10.07h-6.37c-3.38,0-5.14,1.17-5.14,4.16V127.7h9.88c4.55,0,7-2,7-8.12h1.56v18.2h-1.56c0-5.79-2.47-8.32-7-8.32h-9.88v17.42c0,3.12,1.76,4.48,5.2,4.48H490c7.54,0,12.16-3.12,17.36-10.33l1.17.52L504.07,153Z" transform="translate(1.32 2.19)"/><path class="cls-2" d="M517.33,141c3.44,5.26,8.84,11.37,18,11.37,6.57,0,11.57-2.66,11.57-10.2,0-6.37-3.9-8.45-14-11.38-7.22-2.14-15-5.39-15-13.84,0-5.46,3.45-11.83,13.91-11.83,4.68,0,7.48,1.75,9.17,1.75a1.43,1.43,0,0,0,.78-.13L545,105.6l4.23,11.7-1,.65c-3.83-6.43-9.1-11.18-16.64-11.18-5.26,0-10.14,2.41-10.14,9.1,0,6.89,6.37,9.49,13.26,11.38,8.78,2.4,15.93,5.39,15.93,13.71,0,9.17-6.76,13.07-15.08,13.07-4.62,0-8.71-2.08-10.21-2.08a9.26,9.26,0,0,0-4.74,2L516,141.55Z" transform="translate(1.32 2.19)"/></svg>