<svg id="Capa_2" data-name="Capa 2" xmlns="http://www.w3.org/2000/svg" viewBox="0 0 48.27 47.79"><defs><style>.cls-1{fill:#fff;}</style></defs><path class="cls-1" d="M29.73,28.59A2.29,2.29,0,0,0,27.3,31a5.39,5.39,0,0,0,4.25,1.89,4.61,4.61,0,0,0,2.57-.66C32.81,29.31,30.83,28.59,29.73,28.59Z"/><path class="cls-1" d="M38.29,23.56c0-4.68-2.16-9.39-6.74-9.39s-6.71,4.71-6.71,9.39c0,2.28.67,5.62,2,7-.16-1.79,1.34-2.81,3.27-2.81a6.13,6.13,0,0,1,5.35,3.8C37.6,30,38.29,26.08,38.29,23.56Z"/><path class="cls-1" d="M24.14,0A24,24,0,0,0,0,23.9a24.14,24.14,0,0,0,48.27,0A24,24,0,0,0,24.14,0ZM16.41,14.14H13.6c-1.26,0-1.87.6-1.87,1.76v6.55h3.9c1.77,0,3-.28,3-3.32h.64v7.7h-.64c0-2.79-1.23-3.64-3-3.64H11.73v7.26c0,1.59.61,2,2.78,2v.69h-7v-.69c2.17,0,2.54-.44,2.54-2V15.9c0-1.16-.37-1.76-2.54-1.76v-.68H21.36L23.28,18l-.4.22C21.79,16.53,19.81,14.14,16.41,14.14ZM38,36.14c-1.63,0-2.78-1.4-3.56-3.08a6.88,6.88,0,0,1-2.89.53c-5.75,0-8.51-5-8.51-10s2.79-10.08,8.51-10.08c5.51,0,8.56,5,8.56,10.08,0,3.4-1.36,7.63-4.22,8.88.42,1.05,1.39,2.3,2.62,2.3a3.59,3.59,0,0,0,2-.5l.33.42C40,35.47,39.36,36.14,38,36.14Z"/></svg>