<svg id="Capa_2" data-name="Capa 2" xmlns="http://www.w3.org/2000/svg" viewBox="0 0 286.53 47.79"><defs><style>.cls-1{fill:#fff;}</style></defs><path class="cls-1" d="M31.52,29.7a2.3,2.3,0,0,0-2.44,2.43A5.41,5.41,0,0,0,33.34,34a4.57,4.57,0,0,0,2.56-.67C34.59,30.42,32.61,29.7,31.52,29.7Z" transform="translate(-1.78 -1.1)"/><path class="cls-1" d="M40.08,24.67c0-4.69-2.17-9.39-6.74-9.39s-6.72,4.7-6.72,9.39c0,2.27.67,5.61,2,7-.16-1.8,1.34-2.81,3.26-2.81a6.12,6.12,0,0,1,5.35,3.8C39.38,31.09,40.08,27.18,40.08,24.67Z" transform="translate(-1.78 -1.1)"/><path class="cls-1" d="M25.92,1.1A23.9,23.9,0,1,0,50.06,25,24,24,0,0,0,25.92,1.1ZM18.19,15.25H15.38c-1.25,0-1.87.6-1.87,1.75v6.55h3.91c1.76,0,3-.27,3-3.32h.65v7.71h-.65c0-2.8-1.23-3.65-3-3.65H13.51v7.27c0,1.59.62,2,2.78,2v.69h-7v-.69c2.17,0,2.55-.43,2.55-2V17c0-1.15-.38-1.75-2.55-1.75v-.69H23.14l1.93,4.5-.4.22C23.57,17.63,21.59,15.25,18.19,15.25Zm21.59,22c-1.63,0-2.78-1.39-3.55-3.08a6.72,6.72,0,0,1-2.89.54c-5.76,0-8.51-5-8.51-10s2.78-10.09,8.51-10.09c5.51,0,8.56,5,8.56,10.09,0,3.39-1.37,7.62-4.23,8.88.43,1,1.39,2.3,2.62,2.3a3.57,3.57,0,0,0,2-.51l.32.43C41.74,36.57,41.15,37.24,39.78,37.24Z" transform="translate(-1.78 -1.1)"/><path class="cls-1" d="M65.1,34.52v-.63c2,0,2.37-.4,2.37-1.85V18.77c0-1.05-.35-1.6-2.37-1.6v-.62h13l1.8,4.09-.38.2a7.32,7.32,0,0,0-6-3.67H70.8c-1.18,0-1.75.55-1.75,1.6v6H72.7c1.65,0,2.8-.25,2.8-3h.6v7h-.6c0-2.55-1.15-3.32-2.83-3.32H69.05V32c0,1.45.57,1.85,2.6,1.85v.63Z" transform="translate(-1.78 -1.1)"/><path class="cls-1" d="M80.62,16.55h6.75v.62c-2,0-2.6.38-2.6,1.62V32.42c0,1,.65,1.47,2.6,1.47v.63H80.62v-.63c1.95,0,2.6-.47,2.6-1.47V18.79c0-1.24-.65-1.62-2.6-1.62Z" transform="translate(-1.78 -1.1)"/><path class="cls-1" d="M88.12,34.52v-.63c1.78,0,2.38-.47,2.38-1.72V18.9c0-1.25-.6-1.73-2.38-1.73v-.62H91.5l11.4,15v-13c0-1-.65-1.37-2.6-1.37v-.62H106v.62c-1.65,0-2.4.43-2.4,1.37v16.1h-.4l-12-15.95V32.17c0,1.25.55,1.72,2.6,1.72v.63Z" transform="translate(-1.78 -1.1)"/><path class="cls-1" d="M115.62,16.1l6.17,16a2.27,2.27,0,0,0,2.5,1.82v.63H118v-.63c1.64,0,2.39-.2,2.39-1a2.75,2.75,0,0,0-.14-.75L118.57,28h-7.52l-1.35,3.62a4.21,4.21,0,0,0-.25,1.15c0,.9.72,1.15,2.37,1.15v.63h-5.45v-.63c1.38,0,1.88-.32,2.65-2.6l5.23-14.62Zm-.9,1.7-3.42,9.44h7Z" transform="translate(-1.78 -1.1)"/><path class="cls-1" d="M124.67,34.52v-.63c1.78,0,2.38-.47,2.38-1.72V18.9c0-1.25-.6-1.73-2.38-1.73v-.62h3.38l11.4,15v-13c0-1-.66-1.37-2.6-1.37v-.62h5.72v.62c-1.65,0-2.4.43-2.4,1.37v16.1h-.4l-12-15.95V32.17c0,1.25.55,1.72,2.6,1.72v.63Z" transform="translate(-1.78 -1.1)"/><path class="cls-1" d="M155.29,34.52H143.45l-.25-.35,11.9-17h-5.35c-2.8,0-4.3,1.73-5.48,3.87l-.4-.17,1.5-4.32h11.5l.15.37-11.92,17h6.5c1.7,0,3.55-1.22,5.07-3.85l.4.2Z" transform="translate(-1.78 -1.1)"/><path class="cls-1" d="M167.32,16.1l6.17,16a2.27,2.27,0,0,0,2.5,1.82v.63h-6.35v-.63c1.65,0,2.4-.2,2.4-1a2.47,2.47,0,0,0-.15-.75L170.27,28h-7.52l-1.35,3.62a4.21,4.21,0,0,0-.25,1.15c0,.9.72,1.15,2.37,1.15v.63h-5.45v-.63c1.38,0,1.88-.32,2.65-2.6L166,16.67Zm-.9,1.7L163,27.24h7Z" transform="translate(-1.78 -1.1)"/><path class="cls-1" d="M177.5,29.92c1.32,2,3.4,4.37,6.92,4.37,2.52,0,4.45-1,4.45-3.92,0-2.45-1.5-3.25-5.37-4.38-2.78-.82-5.78-2.07-5.78-5.32,0-2.1,1.33-4.55,5.35-4.55,1.8,0,2.87.68,3.52.68a.52.52,0,0,0,.3-.05l1.23-.45,1.62,4.49-.37.25c-1.48-2.47-3.5-4.29-6.4-4.29-2,0-3.9.92-3.9,3.49s2.45,3.65,5.1,4.38c3.37.92,6.12,2.07,6.12,5.27,0,3.53-2.6,5-5.79,5-1.78,0-3.35-.8-3.93-.8a3.55,3.55,0,0,0-1.82.75L177,30.12Z" transform="translate(-1.78 -1.1)"/><path class="cls-1" d="M215.34,35.92a3.54,3.54,0,0,1-2.65,1.37c-1.52,0-2.6-1.3-3.32-2.87a6.38,6.38,0,0,1-2.7.5c-5.37,0-7.95-4.68-7.95-9.38s2.6-9.42,7.95-9.42c5.15,0,8,4.7,8,9.42,0,3.18-1.28,7.13-3.95,8.3.4,1,1.3,2.15,2.45,2.15a3.3,3.3,0,0,0,1.87-.47ZM200.4,25.54c0,2.13.62,5.25,1.87,6.55-.15-1.67,1.25-2.62,3-2.62a5.72,5.72,0,0,1,5,3.55c2-1.48,2.65-5.13,2.65-7.48,0-4.37-2-8.77-6.3-8.77S200.4,21.17,200.4,25.54Zm8.67,8.13c-1.23-2.75-3.07-3.43-4.1-3.43a2.14,2.14,0,0,0-2.27,2.28,5,5,0,0,0,4,1.77A4.34,4.34,0,0,0,209.07,33.67Z" transform="translate(-1.78 -1.1)"/><path class="cls-1" d="M215.6,16.55H222v.62c-1.78,0-2.4.45-2.4,1.5V28.94c0,3,2.29,5.15,5.54,5.15,2.38,0,5.28-1.1,5.28-5.25V18.67c0-1.05-.53-1.5-2.4-1.5v-.62h5.5v.62c-1.88,0-2.4.45-2.4,1.5V29c0,4-2.73,5.93-6.75,5.93C221,34.92,218,33,218,28.67v-10c0-1.05-.45-1.5-2.37-1.5Z" transform="translate(-1.78 -1.1)"/><path class="cls-1" d="M243.09,16.1l6.18,16a2.26,2.26,0,0,0,2.5,1.82v.63h-6.35v-.63c1.65,0,2.4-.2,2.4-1a2.47,2.47,0,0,0-.15-.75L246,28h-7.52l-1.35,3.62a4.21,4.21,0,0,0-.25,1.15c0,.9.73,1.15,2.37,1.15v.63h-5.44v-.63c1.37,0,1.87-.32,2.65-2.6l5.22-14.62Zm-.9,1.7-3.42,9.44h7Z" transform="translate(-1.78 -1.1)"/><path class="cls-1" d="M252.15,34.52v-.63c1.77,0,2.37-.47,2.37-1.72V18.9c0-1.25-.6-1.73-2.37-1.73v-.62h3.37l11.4,15v-13c0-1-.65-1.37-2.6-1.37v-.62H270v.62c-1.65,0-2.4.43-2.4,1.37v16.1h-.4l-12-15.95V32.17c0,1.25.55,1.72,2.6,1.72v.63Z" transform="translate(-1.78 -1.1)"/><path class="cls-1" d="M275.82,34.54v-.62c1.55,0,2.82-.13,2.82-1.38V18.65c0-1-.5-1.45-2.1-1.45-3.22,0-4.52,1.92-5.62,3.69l-.35-.2L272,16.57h14.82l1.48,4.3-.43.17c-1.2-2-2.07-3.84-5.17-3.84-1.73,0-2.53.4-2.53,1.45V32.54c0,1.25,1,1.38,2.83,1.38v.62Z" transform="translate(-1.78 -1.1)"/></svg>